<svg width="256" height="256" viewBox="0 0 20 20" xmlns="http://www.w3.org/2000/svg">
    <rect x="0" y="0" width="20"
          height="20" rx="8" fill="none"/>
    <svg xmlns="http://www.w3.org/2000/svg" viewBox="0 0 20 20" fill="currentColor" x="0" y="0" width="20" height="20">
        <path fill="currentColor"
              d="M6 6V2c0-1.1.9-2 2-2h10a2 2 0 0 1 2 2v10a2 2 0 0 1-2 2h-4v4a2 2 0 0 1-2 2H2a2 2 0 0 1-2-2V8c0-1.1.9-2 2-2h4zm2 0h4a2 2 0 0 1 2 2v4h4V2H8v4zM2 8v10h10V8H2z"/>
    </svg>
</svg>