<svg width="256" height="256" viewBox="0 0 24 24" xmlns="http://www.w3.org/2000/svg">
    <rect x="0" y="0" width="24"
          height="24" rx="8" fill="none"/>
    <svg xmlns="http://www.w3.org/2000/svg" viewBox="0 0 24 24" fill="currentColor" x="0" y="0" width="24" height="24">
        <path fill="currentColor"
              d="M3 17h12a1 1 0 0 1 .117 1.993L15 19H3a1 1 0 0 1-.117-1.993L3 17h12H3Zm0-4h18a1 1 0 0 1 .117 1.993L21 15H3a1 1 0 0 1-.117-1.993L3 13h18H3Zm0-4h18a1 1 0 0 1 .117 1.993L21 11H3a1 1 0 0 1-.117-1.993L3 9h18H3Zm0-4h18a1 1 0 0 1 .117 1.993L21 7H3a1 1 0 0 1-.117-1.993L3 5h18H3Z"/>
    </svg>
</svg>